<mxfile host="app.diagrams.net" modified="2021-06-11T05:15:20.160Z" agent="5.0 (Windows NT 10.0; Win64; x64) AppleWebKit/537.36 (KHTML, like Gecko) Chrome/91.0.4472.101 Safari/537.36" etag="VJbCI-daVGMvc3F0n9ee" version="14.7.7" type="github">
  <diagram id="KPIGHl_YIc82Vka4Z1kb" name="Page-1">
    <mxGraphModel dx="1221" dy="1781" grid="1" gridSize="10" guides="1" tooltips="1" connect="1" arrows="1" fold="1" page="1" pageScale="1" pageWidth="850" pageHeight="1100" math="0" shadow="0">
      <root>
        <mxCell id="0" />
        <mxCell id="1" parent="0" />
        <UserObject label="" lucidchartObjectId="90PKavXX~yLS" id="Zxu4i2cO9cVzoVSatC0U-1">
          <mxCell style="html=1;overflow=block;blockSpacing=1;whiteSpace=wrap;;whiteSpace=wrap;fontSize=13;spacing=3.8;strokeColor=#5e5e5e;strokeOpacity=100;rounded=1;absoluteArcSize=1;arcSize=9;strokeWidth=2.3;" vertex="1" parent="1">
            <mxGeometry x="720" y="345" width="405" height="120" as="geometry" />
          </mxCell>
        </UserObject>
        <UserObject label="Create" lucidchartObjectId="6NPKVBiIwq2j" id="Zxu4i2cO9cVzoVSatC0U-2">
          <mxCell style="html=1;overflow=block;blockSpacing=1;whiteSpace=wrap;strokeColor=none;fillColor=none;whiteSpace=wrap;fontSize=16.7;fontColor=#333333;spacing=0;strokeWidth=1.5;" vertex="1" parent="1">
            <mxGeometry x="660" y="563" width="180" height="45" as="geometry" />
          </mxCell>
        </UserObject>
        <UserObject label="to" lucidchartObjectId="JOPKYSvNVNoh" id="Zxu4i2cO9cVzoVSatC0U-3">
          <mxCell style="html=1;overflow=block;blockSpacing=1;whiteSpace=wrap;strokeColor=none;fillColor=none;whiteSpace=wrap;fontSize=16.7;fontColor=#333333;spacing=0;strokeWidth=1.5;" vertex="1" parent="1">
            <mxGeometry x="795" y="360" width="180" height="45" as="geometry" />
          </mxCell>
        </UserObject>
        <UserObject label="Use" lucidchartObjectId="TNPKajP9p9WQ" id="Zxu4i2cO9cVzoVSatC0U-4">
          <mxCell style="html=1;overflow=block;blockSpacing=1;whiteSpace=wrap;strokeColor=none;fillColor=none;whiteSpace=wrap;fontSize=16.7;fontColor=#333333;spacing=0;strokeWidth=1.5;" vertex="1" parent="1">
            <mxGeometry x="735" y="360" width="180" height="45" as="geometry" />
          </mxCell>
        </UserObject>
        <UserObject label="Get" lucidchartObjectId="ZNPKfzp_uSJp" id="Zxu4i2cO9cVzoVSatC0U-5">
          <mxCell style="html=1;overflow=block;blockSpacing=1;whiteSpace=wrap;strokeColor=none;fillColor=none;whiteSpace=wrap;fontSize=16.7;fontColor=#333333;spacing=0;strokeWidth=1.5;" vertex="1" parent="1">
            <mxGeometry x="885" y="360" width="180" height="45" as="geometry" />
          </mxCell>
        </UserObject>
        <UserObject label="Vendor Node" lucidchartObjectId="xHPK.8f6f-J6" id="Zxu4i2cO9cVzoVSatC0U-6">
          <mxCell style="html=1;overflow=block;blockSpacing=1;whiteSpace=wrap;;whiteSpace=wrap;fontSize=16.7;fontColor=#333333;fontStyle=1;spacing=3.8;strokeOpacity=0;fillOpacity=0;rounded=1;absoluteArcSize=1;arcSize=9;fillColor=#ffffff;strokeWidth=2.3;" vertex="1" parent="1">
            <mxGeometry x="390" y="30" width="180" height="45" as="geometry" />
          </mxCell>
        </UserObject>
        <UserObject label="Customer Node" lucidchartObjectId="WHPK.kbVSU54" id="Zxu4i2cO9cVzoVSatC0U-7">
          <mxCell style="html=1;overflow=block;blockSpacing=1;whiteSpace=wrap;;whiteSpace=wrap;fontSize=16.7;fontColor=#333333;fontStyle=1;spacing=3.8;strokeOpacity=0;fillOpacity=0;rounded=1;absoluteArcSize=1;arcSize=9;fillColor=#ffffff;strokeWidth=2.3;" vertex="1" parent="1">
            <mxGeometry x="780" y="30" width="180" height="45" as="geometry" />
          </mxCell>
        </UserObject>
        <UserObject label="3-Way Matching Feature?" lucidchartObjectId="qKPKt-lBLh0B" id="Zxu4i2cO9cVzoVSatC0U-8">
          <mxCell style="html=1;overflow=block;blockSpacing=1;whiteSpace=wrap;;whiteSpace=wrap;fontSize=16.7;fontColor=#0c7cba;spacing=3.8;strokeOpacity=0;fillOpacity=0;rounded=1;absoluteArcSize=1;arcSize=9;fillColor=#ffffff;strokeWidth=2.3;" vertex="1" parent="1">
            <mxGeometry x="758" y="195" width="150" height="48" as="geometry" />
          </mxCell>
        </UserObject>
        <UserObject label="Y" lucidchartObjectId="~KPK-0WRNz-G" id="Zxu4i2cO9cVzoVSatC0U-9">
          <mxCell style="html=1;overflow=block;blockSpacing=1;whiteSpace=wrap;;whiteSpace=wrap;fontSize=16.7;fontColor=#333333;spacing=3.8;strokeOpacity=0;fillOpacity=0;rounded=1;absoluteArcSize=1;arcSize=9;fillColor=#ffffff;strokeWidth=2.3;" vertex="1" parent="1">
            <mxGeometry x="758" y="255" width="180" height="45" as="geometry" />
          </mxCell>
        </UserObject>
        <UserObject label="N" lucidchartObjectId="fLPKLrqTiSPN" id="Zxu4i2cO9cVzoVSatC0U-10">
          <mxCell style="html=1;overflow=block;blockSpacing=1;whiteSpace=wrap;;whiteSpace=wrap;fontSize=16.7;fontColor=#333333;spacing=3.8;strokeOpacity=0;fillOpacity=0;rounded=1;absoluteArcSize=1;arcSize=9;fillColor=#ffffff;strokeWidth=2.3;" vertex="1" parent="1">
            <mxGeometry x="975" y="210" width="180" height="45" as="geometry" />
          </mxCell>
        </UserObject>
        <UserObject label="AR INV" lucidchartObjectId="ZLPK6Nv6k6-N" id="Zxu4i2cO9cVzoVSatC0U-11">
          <mxCell style="html=1;overflow=block;blockSpacing=1;whiteSpace=wrap;;whiteSpace=wrap;fontSize=16.7;fontColor=#333333;spacing=3.8;strokeColor=#99d5ca;strokeOpacity=100;rounded=1;absoluteArcSize=1;arcSize=9;strokeWidth=2.3;" vertex="1" parent="1">
            <mxGeometry x="570" y="105" width="60" height="45" as="geometry" />
          </mxCell>
        </UserObject>
        <UserObject label="" lucidchartObjectId="dMPKwNEBRdUu" id="Zxu4i2cO9cVzoVSatC0U-12">
          <mxCell style="html=1;jettySize=18;whiteSpace=wrap;fontSize=13;strokeColor=#5E5E5E;strokeWidth=1.5;rounded=1;arcSize=12;edgeStyle=orthogonalEdgeStyle;startArrow=none;;endArrow=block;endFill=1;;exitX=1.019;exitY=0.5;exitPerimeter=0;entryX=-0.019;entryY=0.5;entryPerimeter=0;" edge="1" parent="1" source="Zxu4i2cO9cVzoVSatC0U-11" target="Zxu4i2cO9cVzoVSatC0U-13">
            <mxGeometry width="100" height="100" relative="1" as="geometry">
              <Array as="points" />
            </mxGeometry>
          </mxCell>
        </UserObject>
        <UserObject label="AR INV" lucidchartObjectId="kMPKlbA2OVXF" id="Zxu4i2cO9cVzoVSatC0U-13">
          <mxCell style="html=1;overflow=block;blockSpacing=1;whiteSpace=wrap;;whiteSpace=wrap;fontSize=16.7;fontColor=#333333;spacing=3.8;strokeColor=#99d5ca;strokeOpacity=100;rounded=1;absoluteArcSize=1;arcSize=9;strokeWidth=2.3;" vertex="1" parent="1">
            <mxGeometry x="750" y="105" width="60" height="45" as="geometry" />
          </mxCell>
        </UserObject>
        <UserObject label="AR INV" lucidchartObjectId="3MPKJ7pf8mBu" id="Zxu4i2cO9cVzoVSatC0U-14">
          <mxCell style="html=1;overflow=block;blockSpacing=1;whiteSpace=wrap;;whiteSpace=wrap;fontSize=16.7;fontColor=#333333;spacing=3.8;strokeColor=#99d5ca;strokeOpacity=100;rounded=1;absoluteArcSize=1;arcSize=9;strokeWidth=2.3;" vertex="1" parent="1">
            <mxGeometry x="795" y="390" width="60" height="45" as="geometry" />
          </mxCell>
        </UserObject>
        <UserObject label="&lt;div style=&quot;display: flex; justify-content: center; text-align: center; align-items: baseline; font-size: 0; line-height: 1.25;margin-top: -2px;&quot;&gt;&lt;span&gt;&lt;span style=&quot;font-size:16.7px;color:#333333;&quot;&gt;PO&lt;/span&gt;&lt;span style=&quot;font-size:16px;color:#000000;&quot;&gt; &lt;/span&gt;&lt;/span&gt;&lt;/div&gt;" lucidchartObjectId="~MPKU4ex8Lsb" id="Zxu4i2cO9cVzoVSatC0U-15">
          <mxCell style="html=1;overflow=block;blockSpacing=1;whiteSpace=wrap;;whiteSpace=wrap;fontSize=13;spacing=3.8;strokeColor=#99d5ca;strokeOpacity=100;rounded=1;absoluteArcSize=1;arcSize=9;strokeWidth=2.3;" vertex="1" parent="1">
            <mxGeometry x="908" y="390" width="60" height="45" as="geometry" />
          </mxCell>
        </UserObject>
        <UserObject label="GR" lucidchartObjectId="lNPKuFl8oGwE" id="Zxu4i2cO9cVzoVSatC0U-16">
          <mxCell style="html=1;overflow=block;blockSpacing=1;whiteSpace=wrap;;whiteSpace=wrap;fontSize=16.7;fontColor=#333333;spacing=3.8;strokeColor=#99d5ca;strokeOpacity=100;rounded=1;absoluteArcSize=1;arcSize=9;strokeWidth=2.3;" vertex="1" parent="1">
            <mxGeometry x="983" y="390" width="60" height="45" as="geometry" />
          </mxCell>
        </UserObject>
        <UserObject label="AP INV" lucidchartObjectId="ANPK2z_1KSWV" id="Zxu4i2cO9cVzoVSatC0U-17">
          <mxCell style="html=1;overflow=block;blockSpacing=1;whiteSpace=wrap;;whiteSpace=wrap;fontSize=16.7;fontColor=#333333;spacing=3.8;strokeColor=#99d5ca;strokeOpacity=100;rounded=1;absoluteArcSize=1;arcSize=9;strokeWidth=2.3;" vertex="1" parent="1">
            <mxGeometry x="750" y="618" width="60" height="48" as="geometry" />
          </mxCell>
        </UserObject>
        <UserObject label="" lucidchartObjectId="5SPKLQPhapfa" id="Zxu4i2cO9cVzoVSatC0U-18">
          <mxCell style="html=1;jettySize=18;whiteSpace=wrap;fontSize=13;strokeColor=#5E5E5E;dashed=1;fixDash=1;dashPattern=16 6;strokeWidth=1.5;rounded=1;arcSize=12;edgeStyle=orthogonalEdgeStyle;startArrow=none;;endArrow=block;endFill=1;;" edge="1" parent="1">
            <mxGeometry width="100" height="100" relative="1" as="geometry">
              <Array as="points" />
              <mxPoint x="690" y="-30" as="sourcePoint" />
              <mxPoint x="690" y="1485" as="targetPoint" />
            </mxGeometry>
          </mxCell>
        </UserObject>
        <UserObject label="Manual Verification" lucidchartObjectId="qTPK-L9G5uWl" id="Zxu4i2cO9cVzoVSatC0U-19">
          <mxCell style="html=1;overflow=block;blockSpacing=1;whiteSpace=wrap;;whiteSpace=wrap;fontSize=16.7;fontColor=#333333;spacing=3.8;strokeColor=#5e5e5e;strokeOpacity=100;rounded=1;absoluteArcSize=1;arcSize=9;strokeWidth=2.3;" vertex="1" parent="1">
            <mxGeometry x="975" y="525" width="120" height="45" as="geometry" />
          </mxCell>
        </UserObject>
        <UserObject label="" lucidchartObjectId="sXPK-ZX2K41T" id="Zxu4i2cO9cVzoVSatC0U-20">
          <mxCell style="html=1;jettySize=18;whiteSpace=wrap;fontSize=13;strokeColor=#5E5E5E;strokeWidth=1.5;rounded=1;arcSize=12;edgeStyle=orthogonalEdgeStyle;startArrow=none;;endArrow=block;endFill=1;;exitX=1;exitY=0.5;exitPerimeter=0;entryX=1.009;entryY=0.5;entryPerimeter=0;" edge="1" parent="1" source="Zxu4i2cO9cVzoVSatC0U-8" target="Zxu4i2cO9cVzoVSatC0U-19">
            <mxGeometry width="100" height="100" relative="1" as="geometry">
              <Array as="points">
                <mxPoint x="1230" y="219" />
                <mxPoint x="1230" y="548" />
              </Array>
            </mxGeometry>
          </mxCell>
        </UserObject>
        <UserObject label="Auto Payment Feature?" lucidchartObjectId="6XPK0JN_3aqf" id="Zxu4i2cO9cVzoVSatC0U-21">
          <mxCell style="html=1;overflow=block;blockSpacing=1;whiteSpace=wrap;;whiteSpace=wrap;fontSize=16.7;fontColor=#0c7cba;spacing=3.8;strokeOpacity=0;fillOpacity=0;rounded=1;absoluteArcSize=1;arcSize=9;fillColor=#ffffff;strokeWidth=2.3;" vertex="1" parent="1">
            <mxGeometry x="705" y="720" width="150" height="48" as="geometry" />
          </mxCell>
        </UserObject>
        <UserObject label="" lucidchartObjectId="W1PKP-mtoe-b" id="Zxu4i2cO9cVzoVSatC0U-22">
          <mxCell style="html=1;jettySize=18;whiteSpace=wrap;fontSize=13;strokeColor=#5E5E5E;strokeWidth=1.5;rounded=1;arcSize=12;edgeStyle=orthogonalEdgeStyle;startArrow=none;;endArrow=block;endFill=1;;exitX=0.793;exitY=1.009;exitPerimeter=0;entryX=0.551;entryY=-0.025;entryPerimeter=0;" edge="1" parent="1" source="Zxu4i2cO9cVzoVSatC0U-1" target="Zxu4i2cO9cVzoVSatC0U-19">
            <mxGeometry width="100" height="100" relative="1" as="geometry">
              <Array as="points" />
            </mxGeometry>
          </mxCell>
        </UserObject>
        <UserObject label="" lucidchartObjectId="71PKJt205RtM" id="Zxu4i2cO9cVzoVSatC0U-23">
          <mxCell style="html=1;jettySize=18;whiteSpace=wrap;fontSize=13;strokeColor=#5E5E5E;strokeWidth=1.5;rounded=1;arcSize=12;edgeStyle=orthogonalEdgeStyle;startArrow=none;;endArrow=block;endFill=1;;exitX=0.148;exitY=1.009;exitPerimeter=0;entryX=0.5;entryY=-0.024;entryPerimeter=0;" edge="1" parent="1" source="Zxu4i2cO9cVzoVSatC0U-1" target="Zxu4i2cO9cVzoVSatC0U-17">
            <mxGeometry width="100" height="100" relative="1" as="geometry">
              <Array as="points" />
            </mxGeometry>
          </mxCell>
        </UserObject>
        <UserObject label="Not Match" lucidchartObjectId=".1PKoH31RwW0" id="Zxu4i2cO9cVzoVSatC0U-24">
          <mxCell style="html=1;overflow=block;blockSpacing=1;whiteSpace=wrap;;whiteSpace=wrap;fontSize=16.7;fontColor=#333333;spacing=3.8;strokeOpacity=0;fillOpacity=0;rounded=1;absoluteArcSize=1;arcSize=9;fillColor=#ffffff;strokeWidth=2.3;" vertex="1" parent="1">
            <mxGeometry x="1005" y="473" width="180" height="45" as="geometry" />
          </mxCell>
        </UserObject>
        <UserObject label="Match" lucidchartObjectId="l2PKZxldBZE7" id="Zxu4i2cO9cVzoVSatC0U-25">
          <mxCell style="html=1;overflow=block;blockSpacing=1;whiteSpace=wrap;;whiteSpace=wrap;fontSize=16.7;fontColor=#333333;spacing=3.8;strokeOpacity=0;fillOpacity=0;rounded=1;absoluteArcSize=1;arcSize=9;fillColor=#ffffff;strokeWidth=2.3;" vertex="1" parent="1">
            <mxGeometry x="720" y="474" width="180" height="45" as="geometry" />
          </mxCell>
        </UserObject>
        <UserObject label="" lucidchartObjectId="J4PKrQQnaNYC" id="Zxu4i2cO9cVzoVSatC0U-26">
          <mxCell style="html=1;jettySize=18;whiteSpace=wrap;fontSize=13;strokeColor=#5E5E5E;strokeWidth=1.5;rounded=1;arcSize=12;edgeStyle=orthogonalEdgeStyle;startArrow=none;;endArrow=block;endFill=1;;exitX=1;exitY=0.5;exitPerimeter=0;entryX=0.543;entryY=-0.024;entryPerimeter=0;" edge="1" parent="1" source="Zxu4i2cO9cVzoVSatC0U-21" target="Zxu4i2cO9cVzoVSatC0U-31">
            <mxGeometry width="100" height="100" relative="1" as="geometry">
              <Array as="points" />
            </mxGeometry>
          </mxCell>
        </UserObject>
        <UserObject label="" lucidchartObjectId="n4PKAaMYeEPI" id="Zxu4i2cO9cVzoVSatC0U-27">
          <mxCell style="html=1;jettySize=18;whiteSpace=wrap;fontSize=13;strokeColor=#5E5E5E;strokeWidth=1.5;rounded=1;arcSize=12;edgeStyle=orthogonalEdgeStyle;startArrow=none;;endArrow=block;endFill=1;;exitX=0.5;exitY=1.025;exitPerimeter=0;entryX=0.5;entryY=-0.024;entryPerimeter=0;" edge="1" parent="1" source="Zxu4i2cO9cVzoVSatC0U-19" target="Zxu4i2cO9cVzoVSatC0U-17">
            <mxGeometry width="100" height="100" relative="1" as="geometry">
              <Array as="points" />
            </mxGeometry>
          </mxCell>
        </UserObject>
        <UserObject label="" lucidchartObjectId="N4PKEB0bSc~K" id="Zxu4i2cO9cVzoVSatC0U-28">
          <mxCell style="html=1;jettySize=18;whiteSpace=wrap;fontSize=13;strokeColor=#5E5E5E;strokeWidth=1.5;rounded=1;arcSize=12;edgeStyle=orthogonalEdgeStyle;startArrow=none;;endArrow=block;endFill=1;;exitX=0.5;exitY=1;exitPerimeter=0;entryX=0.333;entryY=-0.025;entryPerimeter=0;" edge="1" parent="1" source="Zxu4i2cO9cVzoVSatC0U-21" target="Zxu4i2cO9cVzoVSatC0U-39">
            <mxGeometry width="100" height="100" relative="1" as="geometry">
              <Array as="points" />
            </mxGeometry>
          </mxCell>
        </UserObject>
        <UserObject label="Y" lucidchartObjectId="R4PKA9M1vbNR" id="Zxu4i2cO9cVzoVSatC0U-29">
          <mxCell style="html=1;overflow=block;blockSpacing=1;whiteSpace=wrap;;whiteSpace=wrap;fontSize=16.7;fontColor=#333333;spacing=3.8;strokeOpacity=0;fillOpacity=0;rounded=1;absoluteArcSize=1;arcSize=9;fillColor=#ffffff;strokeWidth=2.3;" vertex="1" parent="1">
            <mxGeometry x="705" y="780" width="180" height="45" as="geometry" />
          </mxCell>
        </UserObject>
        <UserObject label="N" lucidchartObjectId="24PKM5joFrDE" id="Zxu4i2cO9cVzoVSatC0U-30">
          <mxCell style="html=1;overflow=block;blockSpacing=1;whiteSpace=wrap;;whiteSpace=wrap;fontSize=16.7;fontColor=#333333;spacing=3.8;strokeOpacity=0;fillOpacity=0;rounded=1;absoluteArcSize=1;arcSize=9;fillColor=#ffffff;strokeWidth=2.3;" vertex="1" parent="1">
            <mxGeometry x="803" y="735" width="180" height="45" as="geometry" />
          </mxCell>
        </UserObject>
        <UserObject label="Conduct Payment" lucidchartObjectId="3-PKY~C1u-Ma" id="Zxu4i2cO9cVzoVSatC0U-31">
          <mxCell style="html=1;overflow=block;blockSpacing=1;whiteSpace=wrap;;whiteSpace=wrap;fontSize=16.7;fontColor=#333333;spacing=3.8;strokeColor=#5e5e5e;strokeOpacity=100;rounded=1;absoluteArcSize=1;arcSize=9;strokeWidth=2.3;" vertex="1" parent="1">
            <mxGeometry x="1020" y="885" width="120" height="48" as="geometry" />
          </mxCell>
        </UserObject>
        <UserObject label="AP INV" lucidchartObjectId="..PKCPExOM0l" id="Zxu4i2cO9cVzoVSatC0U-32">
          <mxCell style="html=1;overflow=block;blockSpacing=1;whiteSpace=wrap;;whiteSpace=wrap;fontSize=16.7;fontColor=#333333;spacing=3.8;strokeColor=#99d5ca;strokeOpacity=100;rounded=1;absoluteArcSize=1;arcSize=9;strokeWidth=2.3;" vertex="1" parent="1">
            <mxGeometry x="570" y="618" width="60" height="48" as="geometry" />
          </mxCell>
        </UserObject>
        <UserObject label="" lucidchartObjectId="fcQKTuUsihpn" id="Zxu4i2cO9cVzoVSatC0U-33">
          <mxCell style="html=1;jettySize=18;whiteSpace=wrap;fontSize=13;strokeColor=#5E5E5E;strokeWidth=1.5;rounded=1;arcSize=12;edgeStyle=orthogonalEdgeStyle;startArrow=none;;endArrow=block;endFill=1;;exitX=0.5;exitY=1;exitPerimeter=0;entryX=0.278;entryY=-0.009;entryPerimeter=0;" edge="1" parent="1" source="Zxu4i2cO9cVzoVSatC0U-8" target="Zxu4i2cO9cVzoVSatC0U-1">
            <mxGeometry width="100" height="100" relative="1" as="geometry">
              <Array as="points" />
            </mxGeometry>
          </mxCell>
        </UserObject>
        <UserObject label="" lucidchartObjectId="McQKjxEXaHWV" id="Zxu4i2cO9cVzoVSatC0U-34">
          <mxCell style="html=1;jettySize=18;whiteSpace=wrap;fontSize=13;strokeColor=#5E5E5E;strokeWidth=1.5;rounded=1;arcSize=12;edgeStyle=orthogonalEdgeStyle;startArrow=none;;endArrow=block;endFill=1;;exitX=-0.019;exitY=0.5;exitPerimeter=0;entryX=1.019;entryY=0.5;entryPerimeter=0;" edge="1" parent="1" source="Zxu4i2cO9cVzoVSatC0U-17" target="Zxu4i2cO9cVzoVSatC0U-32">
            <mxGeometry width="100" height="100" relative="1" as="geometry">
              <Array as="points" />
            </mxGeometry>
          </mxCell>
        </UserObject>
        <UserObject label="" lucidchartObjectId="jdQK~OF3TUnS" id="Zxu4i2cO9cVzoVSatC0U-35">
          <mxCell style="html=1;jettySize=18;whiteSpace=wrap;fontSize=13;strokeColor=#5E5E5E;strokeWidth=1.5;rounded=1;arcSize=12;edgeStyle=orthogonalEdgeStyle;startArrow=none;;endArrow=block;endFill=1;;exitX=0.5;exitY=1.024;exitPerimeter=0;entryX=0.5;entryY=0;entryPerimeter=0;" edge="1" parent="1" source="Zxu4i2cO9cVzoVSatC0U-17" target="Zxu4i2cO9cVzoVSatC0U-21">
            <mxGeometry width="100" height="100" relative="1" as="geometry">
              <Array as="points" />
            </mxGeometry>
          </mxCell>
        </UserObject>
        <UserObject label="Record Receive Feature?" lucidchartObjectId="TiQKkQRuDPG0" id="Zxu4i2cO9cVzoVSatC0U-36">
          <mxCell style="html=1;overflow=block;blockSpacing=1;whiteSpace=wrap;;whiteSpace=wrap;fontSize=16.7;fontColor=#0c7cba;spacing=3.8;strokeOpacity=0;fillOpacity=0;rounded=1;absoluteArcSize=1;arcSize=9;fillColor=#ffffff;strokeWidth=2.3;" vertex="1" parent="1">
            <mxGeometry x="525" y="1140" width="150" height="48" as="geometry" />
          </mxCell>
        </UserObject>
        <UserObject label="" lucidchartObjectId="ElQK-TT8oY3." id="Zxu4i2cO9cVzoVSatC0U-37">
          <mxCell style="html=1;overflow=block;blockSpacing=1;whiteSpace=wrap;;whiteSpace=wrap;fontSize=13;spacing=3.8;strokeColor=#99d5ca;strokeOpacity=100;rounded=1;absoluteArcSize=1;arcSize=9;strokeWidth=2.3;" vertex="1" parent="1">
            <mxGeometry x="1125" y="60" width="60" height="45" as="geometry" />
          </mxCell>
        </UserObject>
        <UserObject label="State" lucidchartObjectId="UlQKlWwiV9fy" id="Zxu4i2cO9cVzoVSatC0U-38">
          <mxCell style="html=1;overflow=block;blockSpacing=1;whiteSpace=wrap;;whiteSpace=wrap;fontSize=16.7;fontColor=#333333;spacing=3.8;strokeOpacity=0;fillOpacity=0;rounded=1;absoluteArcSize=1;arcSize=9;fillColor=#ffffff;strokeWidth=2.3;" vertex="1" parent="1">
            <mxGeometry x="1140" y="60" width="180" height="45" as="geometry" />
          </mxCell>
        </UserObject>
        <UserObject label="Payment Gateway" lucidchartObjectId="ImQKPCU94aO6" id="Zxu4i2cO9cVzoVSatC0U-39">
          <mxCell style="html=1;overflow=block;blockSpacing=1;whiteSpace=wrap;;whiteSpace=wrap;fontSize=16.7;fontColor=#333333;spacing=3.8;strokeColor=#5e5e5e;strokeOpacity=100;rounded=1;absoluteArcSize=1;arcSize=9;strokeWidth=2.3;" vertex="1" parent="1">
            <mxGeometry x="720" y="885" width="180" height="45" as="geometry" />
          </mxCell>
        </UserObject>
        <UserObject label="" lucidchartObjectId="nnQKw6K02iLL" id="Zxu4i2cO9cVzoVSatC0U-40">
          <mxCell style="html=1;jettySize=18;whiteSpace=wrap;fontSize=13;strokeColor=#5E5E5E;strokeWidth=1.5;rounded=1;arcSize=12;edgeStyle=orthogonalEdgeStyle;startArrow=none;;endArrow=block;endFill=1;;exitX=0.333;exitY=1.025;exitPerimeter=0;entryX=0.5;entryY=-0.024;entryPerimeter=0;" edge="1" parent="1" source="Zxu4i2cO9cVzoVSatC0U-39" target="Zxu4i2cO9cVzoVSatC0U-41">
            <mxGeometry width="100" height="100" relative="1" as="geometry">
              <Array as="points" />
            </mxGeometry>
          </mxCell>
        </UserObject>
        <UserObject label="PAYMENT" lucidchartObjectId="unQKpbGRIrYI" id="Zxu4i2cO9cVzoVSatC0U-41">
          <mxCell style="html=1;overflow=block;blockSpacing=1;whiteSpace=wrap;;whiteSpace=wrap;fontSize=16.7;fontColor=#333333;spacing=3.8;strokeColor=#99d5ca;strokeOpacity=100;rounded=1;absoluteArcSize=1;arcSize=9;strokeWidth=2.3;" vertex="1" parent="1">
            <mxGeometry x="735" y="1050" width="90" height="48" as="geometry" />
          </mxCell>
        </UserObject>
        <UserObject label="Create" lucidchartObjectId="0nQKEn6GMVam" id="Zxu4i2cO9cVzoVSatC0U-42">
          <mxCell style="html=1;overflow=block;blockSpacing=1;whiteSpace=wrap;strokeColor=none;fillColor=none;whiteSpace=wrap;fontSize=16.7;fontColor=#333333;spacing=0;strokeWidth=1.5;" vertex="1" parent="1">
            <mxGeometry x="660" y="1013" width="180" height="45" as="geometry" />
          </mxCell>
        </UserObject>
        <UserObject label="" lucidchartObjectId="hoQKX5VieDSC" id="Zxu4i2cO9cVzoVSatC0U-43">
          <mxCell style="html=1;jettySize=18;whiteSpace=wrap;fontSize=13;strokeColor=#5E5E5E;strokeWidth=1.5;rounded=1;arcSize=12;edgeStyle=orthogonalEdgeStyle;startArrow=none;;endArrow=block;endFill=1;;exitX=0.5;exitY=1.024;exitPerimeter=0;entryX=0.5;entryY=-0.024;entryPerimeter=0;" edge="1" parent="1" source="Zxu4i2cO9cVzoVSatC0U-31" target="Zxu4i2cO9cVzoVSatC0U-41">
            <mxGeometry width="100" height="100" relative="1" as="geometry">
              <Array as="points" />
            </mxGeometry>
          </mxCell>
        </UserObject>
        <UserObject label="PAYMENT" lucidchartObjectId="OoQKRiHl6yiS" id="Zxu4i2cO9cVzoVSatC0U-44">
          <mxCell style="html=1;overflow=block;blockSpacing=1;whiteSpace=wrap;;whiteSpace=wrap;fontSize=16.7;fontColor=#333333;spacing=3.8;strokeColor=#99d5ca;strokeOpacity=100;rounded=1;absoluteArcSize=1;arcSize=9;strokeWidth=2.3;" vertex="1" parent="1">
            <mxGeometry x="555" y="1050" width="90" height="48" as="geometry" />
          </mxCell>
        </UserObject>
        <UserObject label="" lucidchartObjectId="UoQKrzv6~m1V" id="Zxu4i2cO9cVzoVSatC0U-45">
          <mxCell style="html=1;jettySize=18;whiteSpace=wrap;fontSize=13;strokeColor=#5E5E5E;strokeWidth=1.5;rounded=1;arcSize=12;edgeStyle=orthogonalEdgeStyle;startArrow=none;;endArrow=block;endFill=1;;exitX=-0.012;exitY=0.5;exitPerimeter=0;entryX=1.013;entryY=0.5;entryPerimeter=0;" edge="1" parent="1" source="Zxu4i2cO9cVzoVSatC0U-41" target="Zxu4i2cO9cVzoVSatC0U-44">
            <mxGeometry width="100" height="100" relative="1" as="geometry">
              <Array as="points" />
            </mxGeometry>
          </mxCell>
        </UserObject>
        <UserObject label="" lucidchartObjectId="8oQKANgGeTGe" id="Zxu4i2cO9cVzoVSatC0U-46">
          <mxCell style="html=1;jettySize=18;whiteSpace=wrap;fontSize=13;strokeColor=#5E5E5E;strokeWidth=1.5;rounded=1;arcSize=12;edgeStyle=orthogonalEdgeStyle;startArrow=none;;endArrow=block;endFill=1;;exitX=0.5;exitY=1.024;exitPerimeter=0;entryX=0.5;entryY=0;entryPerimeter=0;" edge="1" parent="1" source="Zxu4i2cO9cVzoVSatC0U-44" target="Zxu4i2cO9cVzoVSatC0U-36">
            <mxGeometry width="100" height="100" relative="1" as="geometry">
              <Array as="points" />
            </mxGeometry>
          </mxCell>
        </UserObject>
        <UserObject label="" lucidchartObjectId="~sQK62c6YoD1" id="Zxu4i2cO9cVzoVSatC0U-47">
          <mxCell style="html=1;overflow=block;blockSpacing=1;whiteSpace=wrap;shape=cylinder3;size=4;anchorPointDirection=0;boundedLbl=1;;whiteSpace=wrap;fontSize=13;spacing=3.8;strokeColor=#5e5e5e;strokeOpacity=100;rounded=1;absoluteArcSize=1;arcSize=9;strokeWidth=2.3;" vertex="1" parent="1">
            <mxGeometry x="1406" y="285" width="158" height="165" as="geometry" />
          </mxCell>
        </UserObject>
        <UserObject label="&lt;div style=&quot;display: flex; justify-content: center; text-align: center; align-items: baseline; font-size: 0; line-height: 1.25;margin-top: -2px;&quot;&gt;&lt;span&gt;&lt;span style=&quot;font-size:16.7px;color:#333333;&quot;&gt;PO&lt;/span&gt;&lt;span style=&quot;font-size:16px;color:#000000;&quot;&gt; &lt;/span&gt;&lt;/span&gt;&lt;/div&gt;" lucidchartObjectId="qtQKRF5n8QKT" id="Zxu4i2cO9cVzoVSatC0U-48">
          <mxCell style="html=1;overflow=block;blockSpacing=1;whiteSpace=wrap;;whiteSpace=wrap;fontSize=13;spacing=3.8;strokeColor=#99d5ca;strokeOpacity=100;rounded=1;absoluteArcSize=1;arcSize=9;strokeWidth=2.3;" vertex="1" parent="1">
            <mxGeometry x="1493" y="330" width="60" height="45" as="geometry" />
          </mxCell>
        </UserObject>
        <UserObject label="GR" lucidchartObjectId="qtQK.D2_hZ0C" id="Zxu4i2cO9cVzoVSatC0U-49">
          <mxCell style="html=1;overflow=block;blockSpacing=1;whiteSpace=wrap;;whiteSpace=wrap;fontSize=16.7;fontColor=#333333;spacing=3.8;strokeColor=#99d5ca;strokeOpacity=100;rounded=1;absoluteArcSize=1;arcSize=9;strokeWidth=2.3;" vertex="1" parent="1">
            <mxGeometry x="1418" y="330" width="60" height="45" as="geometry" />
          </mxCell>
        </UserObject>
        <UserObject label="" lucidchartObjectId="8uQKYO8nuSHD" id="Zxu4i2cO9cVzoVSatC0U-50">
          <mxCell style="html=1;overflow=block;blockSpacing=1;whiteSpace=wrap;shape=cylinder3;size=4;anchorPointDirection=0;boundedLbl=1;;whiteSpace=wrap;fontSize=13;spacing=3.8;strokeColor=#5e5e5e;strokeOpacity=100;rounded=1;absoluteArcSize=1;arcSize=9;strokeWidth=2.3;" vertex="1" parent="1">
            <mxGeometry x="1406" y="570" width="158" height="165" as="geometry" />
          </mxCell>
        </UserObject>
        <UserObject label="&lt;div style=&quot;display: flex; justify-content: center; text-align: center; align-items: baseline; font-size: 0; line-height: 1.25;margin-top: -2px;&quot;&gt;&lt;span&gt;&lt;span style=&quot;font-size:16.7px;color:#333333;&quot;&gt;PO&lt;/span&gt;&lt;span style=&quot;font-size:16px;color:#000000;&quot;&gt; &lt;/span&gt;&lt;/span&gt;&lt;/div&gt;" lucidchartObjectId="8uQKmGpUmI4_" id="Zxu4i2cO9cVzoVSatC0U-51">
          <mxCell style="html=1;overflow=block;blockSpacing=1;whiteSpace=wrap;;whiteSpace=wrap;fontSize=13;spacing=3.8;strokeColor=#99d5ca;strokeOpacity=100;rounded=1;absoluteArcSize=1;arcSize=9;strokeWidth=2.3;" vertex="1" parent="1">
            <mxGeometry x="1493" y="615" width="60" height="45" as="geometry" />
          </mxCell>
        </UserObject>
        <UserObject label="GR" lucidchartObjectId="8uQKHCBqbm5Q" id="Zxu4i2cO9cVzoVSatC0U-52">
          <mxCell style="html=1;overflow=block;blockSpacing=1;whiteSpace=wrap;;whiteSpace=wrap;fontSize=16.7;fontColor=#333333;spacing=3.8;strokeColor=#99d5ca;strokeOpacity=100;rounded=1;absoluteArcSize=1;arcSize=9;strokeWidth=2.3;" vertex="1" parent="1">
            <mxGeometry x="1418" y="615" width="60" height="45" as="geometry" />
          </mxCell>
        </UserObject>
        <UserObject label="AP INV" lucidchartObjectId="~uQKOd2RKEO2" id="Zxu4i2cO9cVzoVSatC0U-53">
          <mxCell style="html=1;overflow=block;blockSpacing=1;whiteSpace=wrap;;whiteSpace=wrap;fontSize=16.7;fontColor=#333333;spacing=3.8;strokeColor=#99d5ca;strokeOpacity=100;rounded=1;absoluteArcSize=1;arcSize=9;strokeWidth=2.3;" vertex="1" parent="1">
            <mxGeometry x="1493" y="665" width="60" height="48" as="geometry" />
          </mxCell>
        </UserObject>
        <UserObject label="" lucidchartObjectId="dyQKwMf.60h9" id="Zxu4i2cO9cVzoVSatC0U-54">
          <mxCell style="html=1;jettySize=18;whiteSpace=wrap;fontSize=13;strokeColor=#5E5E5E;strokeWidth=1.5;rounded=1;arcSize=12;edgeStyle=orthogonalEdgeStyle;startArrow=none;;endArrow=block;endFill=1;;exitX=1.019;exitY=0.5;exitPerimeter=0;entryX=0.5;entryY=0;entryPerimeter=0;" edge="1" parent="1" source="Zxu4i2cO9cVzoVSatC0U-13" target="Zxu4i2cO9cVzoVSatC0U-8">
            <mxGeometry width="100" height="100" relative="1" as="geometry">
              <Array as="points" />
            </mxGeometry>
          </mxCell>
        </UserObject>
        <UserObject label="AR INV" lucidchartObjectId="FAQK-fclyts2" id="Zxu4i2cO9cVzoVSatC0U-55">
          <mxCell style="html=1;overflow=block;blockSpacing=1;whiteSpace=wrap;;whiteSpace=wrap;fontSize=16.7;fontColor=#333333;spacing=3.8;strokeColor=#99d5ca;strokeOpacity=100;rounded=1;absoluteArcSize=1;arcSize=9;strokeWidth=2.3;" vertex="1" parent="1">
            <mxGeometry x="1455" y="383" width="60" height="45" as="geometry" />
          </mxCell>
        </UserObject>
        <UserObject label="AR INV" lucidchartObjectId="0AQKpgfjbUoD" id="Zxu4i2cO9cVzoVSatC0U-56">
          <mxCell style="html=1;overflow=block;blockSpacing=1;whiteSpace=wrap;;whiteSpace=wrap;fontSize=16.7;fontColor=#333333;spacing=3.8;strokeColor=#99d5ca;strokeOpacity=100;fillOpacity=100;rounded=1;absoluteArcSize=1;arcSize=9;fillColor=#cccccc;strokeWidth=2.3;" vertex="1" parent="1">
            <mxGeometry x="1418" y="668" width="60" height="45" as="geometry" />
          </mxCell>
        </UserObject>
        <UserObject label="" lucidchartObjectId="2BQKKThUs8mQ" id="Zxu4i2cO9cVzoVSatC0U-57">
          <mxCell style="html=1;jettySize=18;whiteSpace=wrap;fontSize=13;strokeColor=#5E5E5E;strokeWidth=1.5;rounded=1;arcSize=12;edgeStyle=orthogonalEdgeStyle;startArrow=none;;endArrow=block;endFill=1;;exitX=0.5;exitY=1;exitPerimeter=0;" edge="1" parent="1" source="Zxu4i2cO9cVzoVSatC0U-36">
            <mxGeometry width="100" height="100" relative="1" as="geometry">
              <Array as="points" />
              <mxPoint x="600" y="1305" as="targetPoint" />
            </mxGeometry>
          </mxCell>
        </UserObject>
        <UserObject label="" lucidchartObjectId="7BQK~Jlr-kKS" id="Zxu4i2cO9cVzoVSatC0U-58">
          <mxCell style="html=1;jettySize=18;whiteSpace=wrap;fontSize=13;strokeColor=#5E5E5E;strokeWidth=1.5;rounded=1;arcSize=12;edgeStyle=orthogonalEdgeStyle;startArrow=none;;endArrow=block;endFill=1;;exitX=0;exitY=0.5;exitPerimeter=0;" edge="1" parent="1" source="Zxu4i2cO9cVzoVSatC0U-36">
            <mxGeometry width="100" height="100" relative="1" as="geometry">
              <Array as="points" />
              <mxPoint x="285" y="1164" as="targetPoint" />
            </mxGeometry>
          </mxCell>
        </UserObject>
        <UserObject label="Y" lucidchartObjectId="aCQKNAuC6FY-" id="Zxu4i2cO9cVzoVSatC0U-59">
          <mxCell style="html=1;overflow=block;blockSpacing=1;whiteSpace=wrap;;whiteSpace=wrap;fontSize=16.7;fontColor=#333333;spacing=3.8;strokeOpacity=0;fillOpacity=0;rounded=1;absoluteArcSize=1;arcSize=9;fillColor=#ffffff;strokeWidth=2.3;" vertex="1" parent="1">
            <mxGeometry x="525" y="1215" width="180" height="45" as="geometry" />
          </mxCell>
        </UserObject>
        <UserObject label="N" lucidchartObjectId="ACQKUKga6Qhx" id="Zxu4i2cO9cVzoVSatC0U-60">
          <mxCell style="html=1;overflow=block;blockSpacing=1;whiteSpace=wrap;;whiteSpace=wrap;fontSize=16.7;fontColor=#333333;spacing=3.8;strokeOpacity=0;fillOpacity=0;rounded=1;absoluteArcSize=1;arcSize=9;fillColor=#ffffff;strokeWidth=2.3;" vertex="1" parent="1">
            <mxGeometry x="345" y="1155" width="180" height="45" as="geometry" />
          </mxCell>
        </UserObject>
      </root>
    </mxGraphModel>
  </diagram>
</mxfile>
